{
    "encoding_details": {
        "programs": [],
        "streams": [
            {
                "codec_name": "h264",
                "profile": "Baseline",
                "width": 1280,
                "height": 720,
                "coded_width": 1280,
                "coded_height": 720,
                "pix_fmt": "yuv420p",
                "level": 31,
                "field_order": "progressive",
                "refs": 1,
                "is_avc": "false",
                "r_frame_rate": "5/1",
                "avg_frame_rate": "5/1",
                "bit_rate": "1071502",
                "bits_per_raw_sample": "8"
            },
            {
                "codec_name": "pcm_s16le",
                "r_frame_rate": "0/0",
                "avg_frame_rate": "0/0",
                "bit_rate": "128000"
            }
        ]
    },
    "frame_data": {
        "frames": [
            {
                "media_type": "audio",
                "stream_index": 1,
                "key_frame": 1,
                "pts": 0,
                "pts_time": "0.000000",
                "pkt_dts": 0,
                "pkt_dts_time": "0.000000",
                "best_effort_timestamp": 0,
                "best_effort_timestamp_time": "0.000000",
                "pkt_duration": 512,
                "pkt_duration_time": "0.064000",
                "pkt_pos": "334",
                "pkt_size": "1024",
                "sample_fmt": "s16",
                "nb_samples": 512,
                "channels": 1
            },
            {
                "media_type": "video",
                "stream_index": 0,
                "key_frame": 1,
                "pkt_dts": 0,
                "pkt_dts_time": "0.000000",
                "best_effort_timestamp": 0,
                "best_effort_timestamp_time": "0.000000",
                "pkt_duration": 1,
                "pkt_duration_time": "0.200000",
                "pkt_pos": "1366",
                "pkt_size": "30714",
                "width": 1280,
                "height": 720,
                "pix_fmt": "yuv420p",
                "pict_type": "I",
                "coded_picture_number": 0,
                "display_picture_number": 0,
                "interlaced_frame": 0,
                "top_field_first": 0,
                "repeat_pict": 0
            },
            {
                "media_type": "audio",
                "stream_index": 1,
                "key_frame": 1,
                "pts": 512,
                "pts_time": "0.064000",
                "pkt_dts": 512,
                "pkt_dts_time": "0.064000",
                "best_effort_timestamp": 512,
                "best_effort_timestamp_time": "0.064000",
                "pkt_duration": 512,
                "pkt_duration_time": "0.064000",
                "pkt_pos": "32088",
                "pkt_size": "1024",
                "sample_fmt": "s16",
                "nb_samples": 512,
                "channels": 1
            },
            {
                "media_type": "audio",
                "stream_index": 1,
                "key_frame": 1,
                "pts": 1024,
                "pts_time": "0.128000",
                "pkt_dts": 1024,
                "pkt_dts_time": "0.128000",
                "best_effort_timestamp": 1024,
                "best_effort_timestamp_time": "0.128000",
                "pkt_duration": 512,
                "pkt_duration_time": "0.064000",
                "pkt_pos": "33120",
                "pkt_size": "1024",
                "sample_fmt": "s16",
                "nb_samples": 512,
                "channels": 1
            },
            {
                "media_type": "audio",
                "stream_index": 1,
                "key_frame": 1,
                "pts": 1536,
                "pts_time": "0.192000",
                "pkt_dts": 1536,
                "pkt_dts_time": "0.192000",
                "best_effort_timestamp": 1536,
                "best_effort_timestamp_time": "0.192000",
                "pkt_duration": 512,
                "pkt_duration_time": "0.064000",
                "pkt_pos": "34152",
                "pkt_size": "1024",
                "sample_fmt": "s16",
                "nb_samples": 512,
                "channels": 1
            },
            {
                "media_type": "audio",
                "stream_index": 1,
                "key_frame": 1,
                "pts": 2048,
                "pts_time": "0.256000",
                "pkt_dts": 2048,
                "pkt_dts_time": "0.256000",
                "best_effort_timestamp": 2048,
                "best_effort_timestamp_time": "0.256000",
                "pkt_duration": 512,
                "pkt_duration_time": "0.064000",
                "pkt_pos": "35184",
                "pkt_size": "1024",
                "sample_fmt": "s16",
                "nb_samples": 512,
                "channels": 1
            },
            {
                "media_type": "video",
                "stream_index": 0,
                "key_frame": 0,
                "pkt_dts": 1,
                "pkt_dts_time": "0.200000",
                "best_effort_timestamp": 1,
                "best_effort_timestamp_time": "0.200000",
                "pkt_duration": 1,
                "pkt_duration_time": "0.200000",
                "pkt_pos": "36216",
                "pkt_size": "23193",
                "width": 1280,
                "height": 720,
                "pix_fmt": "yuv420p",
                "pict_type": "P",
                "coded_picture_number": 1,
                "display_picture_number": 0,
                "interlaced_frame": 0,
                "top_field_first": 0,
                "repeat_pict": 0
            },
            {
                "media_type": "audio",
                "stream_index": 1,
                "key_frame": 1,
                "pts": 2560,
                "pts_time": "0.320000",
                "pkt_dts": 2560,
                "pkt_dts_time": "0.320000",
                "best_effort_timestamp": 2560,
                "best_effort_timestamp_time": "0.320000",
                "pkt_duration": 512,
                "pkt_duration_time": "0.064000",
                "pkt_pos": "59418",
                "pkt_size": "1024",
                "sample_fmt": "s16",
                "nb_samples": 512,
                "channels": 1
            },
            {
                "media_type": "audio",
                "stream_index": 1,
                "key_frame": 1,
                "pts": 3072,
                "pts_time": "0.384000",
                "pkt_dts": 3072,
                "pkt_dts_time": "0.384000",
                "best_effort_timestamp": 3072,
                "best_effort_timestamp_time": "0.384000",
                "pkt_duration": 512,
                "pkt_duration_time": "0.064000",
                "pkt_pos": "60450",
                "pkt_size": "1024",
                "sample_fmt": "s16",
                "nb_samples": 512,
                "channels": 1
            },
            {
                "media_type": "audio",
                "stream_index": 1,
                "key_frame": 1,
                "pts": 3584,
                "pts_time": "0.448000",
                "pkt_dts": 3584,
                "pkt_dts_time": "0.448000",
                "best_effort_timestamp": 3584,
                "best_effort_timestamp_time": "0.448000",
                "pkt_duration": 512,
                "pkt_duration_time": "0.064000",
                "pkt_pos": "61482",
                "pkt_size": "1024",
                "sample_fmt": "s16",
                "nb_samples": 512,
                "channels": 1
            },
            {
                "media_type": "audio",
                "stream_index": 1,
                "key_frame": 1,
                "pts": 4096,
                "pts_time": "0.512000",
                "pkt_dts": 4096,
                "pkt_dts_time": "0.512000",
                "best_effort_timestamp": 4096,
                "best_effort_timestamp_time": "0.512000",
                "pkt_duration": 512,
                "pkt_duration_time": "0.064000",
                "pkt_pos": "62514",
                "pkt_size": "1024",
                "sample_fmt": "s16",
                "nb_samples": 512,
                "channels": 1
            },
            {
                "media_type": "video",
                "stream_index": 0,
                "key_frame": 0,
                "pkt_dts": 2,
                "pkt_dts_time": "0.400000",
                "best_effort_timestamp": 2,
                "best_effort_timestamp_time": "0.400000",
                "pkt_duration": 1,
                "pkt_duration_time": "0.200000",
                "pkt_pos": "63546",
                "pkt_size": "20875",
                "width": 1280,
                "height": 720,
                "pix_fmt": "yuv420p",
                "pict_type": "P",
                "coded_picture_number": 2,
                "display_picture_number": 0,
                "interlaced_frame": 0,
                "top_field_first": 0,
                "repeat_pict": 0
            },
            {
                "media_type": "audio",
                "stream_index": 1,
                "key_frame": 1,
                "pts": 4608,
                "pts_time": "0.576000",
                "pkt_dts": 4608,
                "pkt_dts_time": "0.576000",
                "best_effort_timestamp": 4608,
                "best_effort_timestamp_time": "0.576000",
                "pkt_duration": 512,
                "pkt_duration_time": "0.064000",
                "pkt_pos": "84430",
                "pkt_size": "1024",
                "sample_fmt": "s16",
                "nb_samples": 512,
                "channels": 1
            },
            {
                "media_type": "audio",
                "stream_index": 1,
                "key_frame": 1,
                "pts": 5120,
                "pts_time": "0.640000",
                "pkt_dts": 5120,
                "pkt_dts_time": "0.640000",
                "best_effort_timestamp": 5120,
                "best_effort_timestamp_time": "0.640000",
                "pkt_duration": 512,
                "pkt_duration_time": "0.064000",
                "pkt_pos": "85462",
                "pkt_size": "1024",
                "sample_fmt": "s16",
                "nb_samples": 512,
                "channels": 1
            },
            {
                "media_type": "audio",
                "stream_index": 1,
                "key_frame": 1,
                "pts": 5632,
                "pts_time": "0.704000",
                "pkt_dts": 5632,
                "pkt_dts_time": "0.704000",
                "best_effort_timestamp": 5632,
                "best_effort_timestamp_time": "0.704000",
                "pkt_duration": 512,
                "pkt_duration_time": "0.064000",
                "pkt_pos": "86494",
                "pkt_size": "1024",
                "sample_fmt": "s16",
                "nb_samples": 512,
                "channels": 1
            },
            {
                "media_type": "video",
                "stream_index": 0,
                "key_frame": 0,
                "pkt_dts": 3,
                "pkt_dts_time": "0.600000",
                "best_effort_timestamp": 3,
                "best_effort_timestamp_time": "0.600000",
                "pkt_duration": 1,
                "pkt_duration_time": "0.200000",
                "pkt_pos": "87526",
                "pkt_size": "19709",
                "width": 1280,
                "height": 720,
                "pix_fmt": "yuv420p",
                "pict_type": "P",
                "coded_picture_number": 3,
                "display_picture_number": 0,
                "interlaced_frame": 0,
                "top_field_first": 0,
                "repeat_pict": 0
            },
            {
                "media_type": "audio",
                "stream_index": 1,
                "key_frame": 1,
                "pts": 6144,
                "pts_time": "0.768000",
                "pkt_dts": 6144,
                "pkt_dts_time": "0.768000",
                "best_effort_timestamp": 6144,
                "best_effort_timestamp_time": "0.768000",
                "pkt_duration": 512,
                "pkt_duration_time": "0.064000",
                "pkt_pos": "107244",
                "pkt_size": "1024",
                "sample_fmt": "s16",
                "nb_samples": 512,
                "channels": 1
            },
            {
                "media_type": "audio",
                "stream_index": 1,
                "key_frame": 1,
                "pts": 6656,
                "pts_time": "0.832000",
                "pkt_dts": 6656,
                "pkt_dts_time": "0.832000",
                "best_effort_timestamp": 6656,
                "best_effort_timestamp_time": "0.832000",
                "pkt_duration": 512,
                "pkt_duration_time": "0.064000",
                "pkt_pos": "108276",
                "pkt_size": "1024",
                "sample_fmt": "s16",
                "nb_samples": 512,
                "channels": 1
            },
            {
                "media_type": "audio",
                "stream_index": 1,
                "key_frame": 1,
                "pts": 7168,
                "pts_time": "0.896000",
                "pkt_dts": 7168,
                "pkt_dts_time": "0.896000",
                "best_effort_timestamp": 7168,
                "best_effort_timestamp_time": "0.896000",
                "pkt_duration": 512,
                "pkt_duration_time": "0.064000",
                "pkt_pos": "109308",
                "pkt_size": "1024",
                "sample_fmt": "s16",
                "nb_samples": 512,
                "channels": 1
            },
            {
                "media_type": "audio",
                "stream_index": 1,
                "key_frame": 1,
                "pts": 7680,
                "pts_time": "0.960000",
                "pkt_dts": 7680,
                "pkt_dts_time": "0.960000",
                "best_effort_timestamp": 7680,
                "best_effort_timestamp_time": "0.960000",
                "pkt_duration": 512,
                "pkt_duration_time": "0.064000",
                "pkt_pos": "110340",
                "pkt_size": "1024",
                "sample_fmt": "s16",
                "nb_samples": 512,
                "channels": 1
            },
            {
                "media_type": "video",
                "stream_index": 0,
                "key_frame": 0,
                "pkt_dts": 4,
                "pkt_dts_time": "0.800000",
                "best_effort_timestamp": 4,
                "best_effort_timestamp_time": "0.800000",
                "pkt_duration": 1,
                "pkt_duration_time": "0.200000",
                "pkt_pos": "111372",
                "pkt_size": "20690",
                "width": 1280,
                "height": 720,
                "pix_fmt": "yuv420p",
                "pict_type": "P",
                "coded_picture_number": 4,
                "display_picture_number": 0,
                "interlaced_frame": 0,
                "top_field_first": 0,
                "repeat_pict": 0
            },
            {
                "media_type": "audio",
                "stream_index": 1,
                "key_frame": 1,
                "pts": 8192,
                "pts_time": "1.024000",
                "pkt_dts": 8192,
                "pkt_dts_time": "1.024000",
                "best_effort_timestamp": 8192,
                "best_effort_timestamp_time": "1.024000",
                "pkt_duration": 512,
                "pkt_duration_time": "0.064000",
                "pkt_pos": "132070",
                "pkt_size": "1024",
                "sample_fmt": "s16",
                "nb_samples": 512,
                "channels": 1
            },
            {
                "media_type": "audio",
                "stream_index": 1,
                "key_frame": 1,
                "pts": 8704,
                "pts_time": "1.088000",
                "pkt_dts": 8704,
                "pkt_dts_time": "1.088000",
                "best_effort_timestamp": 8704,
                "best_effort_timestamp_time": "1.088000",
                "pkt_duration": 512,
                "pkt_duration_time": "0.064000",
                "pkt_pos": "133102",
                "pkt_size": "1024",
                "sample_fmt": "s16",
                "nb_samples": 512,
                "channels": 1
            },
            {
                "media_type": "audio",
                "stream_index": 1,
                "key_frame": 1,
                "pts": 9216,
                "pts_time": "1.152000",
                "pkt_dts": 9216,
                "pkt_dts_time": "1.152000",
                "best_effort_timestamp": 9216,
                "best_effort_timestamp_time": "1.152000",
                "pkt_duration": 512,
                "pkt_duration_time": "0.064000",
                "pkt_pos": "134134",
                "pkt_size": "1024",
                "sample_fmt": "s16",
                "nb_samples": 512,
                "channels": 1
            },
            {
                "media_type": "video",
                "stream_index": 0,
                "key_frame": 1,
                "pkt_dts": 5,
                "pkt_dts_time": "1.000000",
                "best_effort_timestamp": 5,
                "best_effort_timestamp_time": "1.000000",
                "pkt_duration": 1,
                "pkt_duration_time": "0.200000",
                "pkt_pos": "135166",
                "pkt_size": "31550",
                "width": 1280,
                "height": 720,
                "pix_fmt": "yuv420p",
                "pict_type": "I",
                "coded_picture_number": 5,
                "display_picture_number": 0,
                "interlaced_frame": 0,
                "top_field_first": 0,
                "repeat_pict": 0
            },
            {
                "media_type": "audio",
                "stream_index": 1,
                "key_frame": 1,
                "pts": 9728,
                "pts_time": "1.216000",
                "pkt_dts": 9728,
                "pkt_dts_time": "1.216000",
                "best_effort_timestamp": 9728,
                "best_effort_timestamp_time": "1.216000",
                "pkt_duration": 512,
                "pkt_duration_time": "0.064000",
                "pkt_pos": "166724",
                "pkt_size": "1024",
                "sample_fmt": "s16",
                "nb_samples": 512,
                "channels": 1
            },
            {
                "media_type": "audio",
                "stream_index": 1,
                "key_frame": 1,
                "pts": 10240,
                "pts_time": "1.280000",
                "pkt_dts": 10240,
                "pkt_dts_time": "1.280000",
                "best_effort_timestamp": 10240,
                "best_effort_timestamp_time": "1.280000",
                "pkt_duration": 512,
                "pkt_duration_time": "0.064000",
                "pkt_pos": "167756",
                "pkt_size": "1024",
                "sample_fmt": "s16",
                "nb_samples": 512,
                "channels": 1
            },
            {
                "media_type": "audio",
                "stream_index": 1,
                "key_frame": 1,
                "pts": 10752,
                "pts_time": "1.344000",
                "pkt_dts": 10752,
                "pkt_dts_time": "1.344000",
                "best_effort_timestamp": 10752,
                "best_effort_timestamp_time": "1.344000",
                "pkt_duration": 512,
                "pkt_duration_time": "0.064000",
                "pkt_pos": "168788",
                "pkt_size": "1024",
                "sample_fmt": "s16",
                "nb_samples": 512,
                "channels": 1
            },
            {
                "media_type": "video",
                "stream_index": 0,
                "key_frame": 0,
                "pkt_dts": 6,
                "pkt_dts_time": "1.200000",
                "best_effort_timestamp": 6,
                "best_effort_timestamp_time": "1.200000",
                "pkt_duration": 1,
                "pkt_duration_time": "0.200000",
                "pkt_pos": "169820",
                "pkt_size": "23265",
                "width": 1280,
                "height": 720,
                "pix_fmt": "yuv420p",
                "pict_type": "P",
                "coded_picture_number": 6,
                "display_picture_number": 0,
                "interlaced_frame": 0,
                "top_field_first": 0,
                "repeat_pict": 0
            },
            {
                "media_type": "audio",
                "stream_index": 1,
                "key_frame": 1,
                "pts": 11264,
                "pts_time": "1.408000",
                "pkt_dts": 11264,
                "pkt_dts_time": "1.408000",
                "best_effort_timestamp": 11264,
                "best_effort_timestamp_time": "1.408000",
                "pkt_duration": 512,
                "pkt_duration_time": "0.064000",
                "pkt_pos": "193094",
                "pkt_size": "1024",
                "sample_fmt": "s16",
                "nb_samples": 512,
                "channels": 1
            },
            {
                "media_type": "audio",
                "stream_index": 1,
                "key_frame": 1,
                "pts": 11776,
                "pts_time": "1.472000",
                "pkt_dts": 11776,
                "pkt_dts_time": "1.472000",
                "best_effort_timestamp": 11776,
                "best_effort_timestamp_time": "1.472000",
                "pkt_duration": 512,
                "pkt_duration_time": "0.064000",
                "pkt_pos": "194126",
                "pkt_size": "1024",
                "sample_fmt": "s16",
                "nb_samples": 512,
                "channels": 1
            },
            {
                "media_type": "audio",
                "stream_index": 1,
                "key_frame": 1,
                "pts": 12288,
                "pts_time": "1.536000",
                "pkt_dts": 12288,
                "pkt_dts_time": "1.536000",
                "best_effort_timestamp": 12288,
                "best_effort_timestamp_time": "1.536000",
                "pkt_duration": 512,
                "pkt_duration_time": "0.064000",
                "pkt_pos": "195158",
                "pkt_size": "1024",
                "sample_fmt": "s16",
                "nb_samples": 512,
                "channels": 1
            },
            {
                "media_type": "audio",
                "stream_index": 1,
                "key_frame": 1,
                "pts": 12800,
                "pts_time": "1.600000",
                "pkt_dts": 12800,
                "pkt_dts_time": "1.600000",
                "best_effort_timestamp": 12800,
                "best_effort_timestamp_time": "1.600000",
                "pkt_duration": 512,
                "pkt_duration_time": "0.064000",
                "pkt_pos": "196190",
                "pkt_size": "1024",
                "sample_fmt": "s16",
                "nb_samples": 512,
                "channels": 1
            },
            {
                "media_type": "video",
                "stream_index": 0,
                "key_frame": 0,
                "pkt_dts": 7,
                "pkt_dts_time": "1.400000",
                "best_effort_timestamp": 7,
                "best_effort_timestamp_time": "1.400000",
                "pkt_duration": 1,
                "pkt_duration_time": "0.200000",
                "pkt_pos": "197222",
                "pkt_size": "22185",
                "width": 1280,
                "height": 720,
                "pix_fmt": "yuv420p",
                "pict_type": "P",
                "coded_picture_number": 7,
                "display_picture_number": 0,
                "interlaced_frame": 0,
                "top_field_first": 0,
                "repeat_pict": 0
            },
            {
                "media_type": "audio",
                "stream_index": 1,
                "key_frame": 1,
                "pts": 13312,
                "pts_time": "1.664000",
                "pkt_dts": 13312,
                "pkt_dts_time": "1.664000",
                "best_effort_timestamp": 13312,
                "best_effort_timestamp_time": "1.664000",
                "pkt_duration": 512,
                "pkt_duration_time": "0.064000",
                "pkt_pos": "219416",
                "pkt_size": "1024",
                "sample_fmt": "s16",
                "nb_samples": 512,
                "channels": 1
            },
            {
                "media_type": "audio",
                "stream_index": 1,
                "key_frame": 1,
                "pts": 13824,
                "pts_time": "1.728000",
                "pkt_dts": 13824,
                "pkt_dts_time": "1.728000",
                "best_effort_timestamp": 13824,
                "best_effort_timestamp_time": "1.728000",
                "pkt_duration": 512,
                "pkt_duration_time": "0.064000",
                "pkt_pos": "220448",
                "pkt_size": "1024",
                "sample_fmt": "s16",
                "nb_samples": 512,
                "channels": 1
            },
            {
                "media_type": "audio",
                "stream_index": 1,
                "key_frame": 1,
                "pts": 14336,
                "pts_time": "1.792000",
                "pkt_dts": 14336,
                "pkt_dts_time": "1.792000",
                "best_effort_timestamp": 14336,
                "best_effort_timestamp_time": "1.792000",
                "pkt_duration": 512,
                "pkt_duration_time": "0.064000",
                "pkt_pos": "221480",
                "pkt_size": "1024",
                "sample_fmt": "s16",
                "nb_samples": 512,
                "channels": 1
            },
            {
                "media_type": "video",
                "stream_index": 0,
                "key_frame": 0,
                "pkt_dts": 8,
                "pkt_dts_time": "1.600000",
                "best_effort_timestamp": 8,
                "best_effort_timestamp_time": "1.600000",
                "pkt_duration": 1,
                "pkt_duration_time": "0.200000",
                "pkt_pos": "222512",
                "pkt_size": "21207",
                "width": 1280,
                "height": 720,
                "pix_fmt": "yuv420p",
                "pict_type": "P",
                "coded_picture_number": 8,
                "display_picture_number": 0,
                "interlaced_frame": 0,
                "top_field_first": 0,
                "repeat_pict": 0
            },
            {
                "media_type": "audio",
                "stream_index": 1,
                "key_frame": 1,
                "pts": 14848,
                "pts_time": "1.856000",
                "pkt_dts": 14848,
                "pkt_dts_time": "1.856000",
                "best_effort_timestamp": 14848,
                "best_effort_timestamp_time": "1.856000",
                "pkt_duration": 512,
                "pkt_duration_time": "0.064000",
                "pkt_pos": "243728",
                "pkt_size": "1024",
                "sample_fmt": "s16",
                "nb_samples": 512,
                "channels": 1
            },
            {
                "media_type": "audio",
                "stream_index": 1,
                "key_frame": 1,
                "pts": 15360,
                "pts_time": "1.920000",
                "pkt_dts": 15360,
                "pkt_dts_time": "1.920000",
                "best_effort_timestamp": 15360,
                "best_effort_timestamp_time": "1.920000",
                "pkt_duration": 512,
                "pkt_duration_time": "0.064000",
                "pkt_pos": "244760",
                "pkt_size": "1024",
                "sample_fmt": "s16",
                "nb_samples": 512,
                "channels": 1
            },
            {
                "media_type": "audio",
                "stream_index": 1,
                "key_frame": 1,
                "pts": 15872,
                "pts_time": "1.984000",
                "pkt_dts": 15872,
                "pkt_dts_time": "1.984000",
                "best_effort_timestamp": 15872,
                "best_effort_timestamp_time": "1.984000",
                "pkt_duration": 512,
                "pkt_duration_time": "0.064000",
                "pkt_pos": "245792",
                "pkt_size": "1024",
                "sample_fmt": "s16",
                "nb_samples": 512,
                "channels": 1
            },
            {
                "media_type": "audio",
                "stream_index": 1,
                "key_frame": 1,
                "pts": 16384,
                "pts_time": "2.048000",
                "pkt_dts": 16384,
                "pkt_dts_time": "2.048000",
                "best_effort_timestamp": 16384,
                "best_effort_timestamp_time": "2.048000",
                "pkt_duration": 512,
                "pkt_duration_time": "0.064000",
                "pkt_pos": "246824",
                "pkt_size": "1024",
                "sample_fmt": "s16",
                "nb_samples": 512,
                "channels": 1
            },
            {
                "media_type": "video",
                "stream_index": 0,
                "key_frame": 0,
                "pkt_dts": 9,
                "pkt_dts_time": "1.800000",
                "best_effort_timestamp": 9,
                "best_effort_timestamp_time": "1.800000",
                "pkt_duration": 1,
                "pkt_duration_time": "0.200000",
                "pkt_pos": "247856",
                "pkt_size": "24294",
                "width": 1280,
                "height": 720,
                "pix_fmt": "yuv420p",
                "pict_type": "P",
                "coded_picture_number": 9,
                "display_picture_number": 0,
                "interlaced_frame": 0,
                "top_field_first": 0,
                "repeat_pict": 0
            },
            {
                "media_type": "audio",
                "stream_index": 1,
                "key_frame": 1,
                "pts": 16896,
                "pts_time": "2.112000",
                "pkt_dts": 16896,
                "pkt_dts_time": "2.112000",
                "best_effort_timestamp": 16896,
                "best_effort_timestamp_time": "2.112000",
                "pkt_duration": 512,
                "pkt_duration_time": "0.064000",
                "pkt_pos": "272158",
                "pkt_size": "1024",
                "sample_fmt": "s16",
                "nb_samples": 512,
                "channels": 1
            },
            {
                "media_type": "audio",
                "stream_index": 1,
                "key_frame": 1,
                "pts": 17408,
                "pts_time": "2.176000",
                "pkt_dts": 17408,
                "pkt_dts_time": "2.176000",
                "best_effort_timestamp": 17408,
                "best_effort_timestamp_time": "2.176000",
                "pkt_duration": 512,
                "pkt_duration_time": "0.064000",
                "pkt_pos": "273190",
                "pkt_size": "1024",
                "sample_fmt": "s16",
                "nb_samples": 512,
                "channels": 1
            },
            {
                "media_type": "audio",
                "stream_index": 1,
                "key_frame": 1,
                "pts": 17920,
                "pts_time": "2.240000",
                "pkt_dts": 17920,
                "pkt_dts_time": "2.240000",
                "best_effort_timestamp": 17920,
                "best_effort_timestamp_time": "2.240000",
                "pkt_duration": 512,
                "pkt_duration_time": "0.064000",
                "pkt_pos": "274222",
                "pkt_size": "1024",
                "sample_fmt": "s16",
                "nb_samples": 512,
                "channels": 1
            },
            {
                "media_type": "audio",
                "stream_index": 1,
                "key_frame": 1,
                "pts": 18432,
                "pts_time": "2.304000",
                "pkt_dts": 18432,
                "pkt_dts_time": "2.304000",
                "best_effort_timestamp": 18432,
                "best_effort_timestamp_time": "2.304000",
                "pkt_duration": 512,
                "pkt_duration_time": "0.064000",
                "pkt_pos": "275254",
                "pkt_size": "1024",
                "sample_fmt": "s16",
                "nb_samples": 512,
                "channels": 1
            },
            {
                "media_type": "video",
                "stream_index": 0,
                "key_frame": 1,
                "pkt_dts": 10,
                "pkt_dts_time": "2.000000",
                "best_effort_timestamp": 10,
                "best_effort_timestamp_time": "2.000000",
                "pkt_duration": 1,
                "pkt_duration_time": "0.200000",
                "pkt_pos": "276286",
                "pkt_size": "34707",
                "width": 1280,
                "height": 720,
                "pix_fmt": "yuv420p",
                "pict_type": "I",
                "coded_picture_number": 10,
                "display_picture_number": 0,
                "interlaced_frame": 0,
                "top_field_first": 0,
                "repeat_pict": 0
            },
            {
                "media_type": "audio",
                "stream_index": 1,
                "key_frame": 1,
                "pts": 18944,
                "pts_time": "2.368000",
                "pkt_dts": 18944,
                "pkt_dts_time": "2.368000",
                "best_effort_timestamp": 18944,
                "best_effort_timestamp_time": "2.368000",
                "pkt_duration": 512,
                "pkt_duration_time": "0.064000",
                "pkt_pos": "311002",
                "pkt_size": "1024",
                "sample_fmt": "s16",
                "nb_samples": 512,
                "channels": 1
            },
            {
                "media_type": "audio",
                "stream_index": 1,
                "key_frame": 1,
                "pts": 19456,
                "pts_time": "2.432000",
                "pkt_dts": 19456,
                "pkt_dts_time": "2.432000",
                "best_effort_timestamp": 19456,
                "best_effort_timestamp_time": "2.432000",
                "pkt_duration": 512,
                "pkt_duration_time": "0.064000",
                "pkt_pos": "312034",
                "pkt_size": "1024",
                "sample_fmt": "s16",
                "nb_samples": 512,
                "channels": 1
            },
            {
                "media_type": "video",
                "stream_index": 0,
                "key_frame": 0,
                "pkt_dts": 11,
                "pkt_dts_time": "2.200000",
                "best_effort_timestamp": 11,
                "best_effort_timestamp_time": "2.200000",
                "pkt_duration": 1,
                "pkt_duration_time": "0.200000",
                "pkt_pos": "313066",
                "pkt_size": "23259",
                "width": 1280,
                "height": 720,
                "pix_fmt": "yuv420p",
                "pict_type": "P",
                "coded_picture_number": 11,
                "display_picture_number": 0,
                "interlaced_frame": 0,
                "top_field_first": 0,
                "repeat_pict": 0
            },
            {
                "media_type": "audio",
                "stream_index": 1,
                "key_frame": 1,
                "pts": 19968,
                "pts_time": "2.496000",
                "pkt_dts": 19968,
                "pkt_dts_time": "2.496000",
                "best_effort_timestamp": 19968,
                "best_effort_timestamp_time": "2.496000",
                "pkt_duration": 512,
                "pkt_duration_time": "0.064000",
                "pkt_pos": "336334",
                "pkt_size": "1024",
                "sample_fmt": "s16",
                "nb_samples": 512,
                "channels": 1
            },
            {
                "media_type": "audio",
                "stream_index": 1,
                "key_frame": 1,
                "pts": 20480,
                "pts_time": "2.560000",
                "pkt_dts": 20480,
                "pkt_dts_time": "2.560000",
                "best_effort_timestamp": 20480,
                "best_effort_timestamp_time": "2.560000",
                "pkt_duration": 512,
                "pkt_duration_time": "0.064000",
                "pkt_pos": "337366",
                "pkt_size": "1024",
                "sample_fmt": "s16",
                "nb_samples": 512,
                "channels": 1
            },
            {
                "media_type": "audio",
                "stream_index": 1,
                "key_frame": 1,
                "pts": 20992,
                "pts_time": "2.624000",
                "pkt_dts": 20992,
                "pkt_dts_time": "2.624000",
                "best_effort_timestamp": 20992,
                "best_effort_timestamp_time": "2.624000",
                "pkt_duration": 512,
                "pkt_duration_time": "0.064000",
                "pkt_pos": "338398",
                "pkt_size": "1024",
                "sample_fmt": "s16",
                "nb_samples": 512,
                "channels": 1
            },
            {
                "media_type": "audio",
                "stream_index": 1,
                "key_frame": 1,
                "pts": 21504,
                "pts_time": "2.688000",
                "pkt_dts": 21504,
                "pkt_dts_time": "2.688000",
                "best_effort_timestamp": 21504,
                "best_effort_timestamp_time": "2.688000",
                "pkt_duration": 512,
                "pkt_duration_time": "0.064000",
                "pkt_pos": "339430",
                "pkt_size": "1024",
                "sample_fmt": "s16",
                "nb_samples": 512,
                "channels": 1
            },
            {
                "media_type": "video",
                "stream_index": 0,
                "key_frame": 0,
                "pkt_dts": 12,
                "pkt_dts_time": "2.400000",
                "best_effort_timestamp": 12,
                "best_effort_timestamp_time": "2.400000",
                "pkt_duration": 1,
                "pkt_duration_time": "0.200000",
                "pkt_pos": "340462",
                "pkt_size": "22832",
                "width": 1280,
                "height": 720,
                "pix_fmt": "yuv420p",
                "pict_type": "P",
                "coded_picture_number": 12,
                "display_picture_number": 0,
                "interlaced_frame": 0,
                "top_field_first": 0,
                "repeat_pict": 0
            },
            {
                "media_type": "audio",
                "stream_index": 1,
                "key_frame": 1,
                "pts": 22016,
                "pts_time": "2.752000",
                "pkt_dts": 22016,
                "pkt_dts_time": "2.752000",
                "best_effort_timestamp": 22016,
                "best_effort_timestamp_time": "2.752000",
                "pkt_duration": 512,
                "pkt_duration_time": "0.064000",
                "pkt_pos": "363302",
                "pkt_size": "1024",
                "sample_fmt": "s16",
                "nb_samples": 512,
                "channels": 1
            },
            {
                "media_type": "audio",
                "stream_index": 1,
                "key_frame": 1,
                "pts": 22528,
                "pts_time": "2.816000",
                "pkt_dts": 22528,
                "pkt_dts_time": "2.816000",
                "best_effort_timestamp": 22528,
                "best_effort_timestamp_time": "2.816000",
                "pkt_duration": 512,
                "pkt_duration_time": "0.064000",
                "pkt_pos": "364334",
                "pkt_size": "1024",
                "sample_fmt": "s16",
                "nb_samples": 512,
                "channels": 1
            },
            {
                "media_type": "audio",
                "stream_index": 1,
                "key_frame": 1,
                "pts": 23040,
                "pts_time": "2.880000",
                "pkt_dts": 23040,
                "pkt_dts_time": "2.880000",
                "best_effort_timestamp": 23040,
                "best_effort_timestamp_time": "2.880000",
                "pkt_duration": 512,
                "pkt_duration_time": "0.064000",
                "pkt_pos": "365366",
                "pkt_size": "1024",
                "sample_fmt": "s16",
                "nb_samples": 512,
                "channels": 1
            },
            {
                "media_type": "video",
                "stream_index": 0,
                "key_frame": 0,
                "pkt_dts": 13,
                "pkt_dts_time": "2.600000",
                "best_effort_timestamp": 13,
                "best_effort_timestamp_time": "2.600000",
                "pkt_duration": 1,
                "pkt_duration_time": "0.200000",
                "pkt_pos": "366398",
                "pkt_size": "21042",
                "width": 1280,
                "height": 720,
                "pix_fmt": "yuv420p",
                "pict_type": "P",
                "coded_picture_number": 13,
                "display_picture_number": 0,
                "interlaced_frame": 0,
                "top_field_first": 0,
                "repeat_pict": 0
            },
            {
                "media_type": "audio",
                "stream_index": 1,
                "key_frame": 1,
                "pts": 23552,
                "pts_time": "2.944000",
                "pkt_dts": 23552,
                "pkt_dts_time": "2.944000",
                "best_effort_timestamp": 23552,
                "best_effort_timestamp_time": "2.944000",
                "pkt_duration": 512,
                "pkt_duration_time": "0.064000",
                "pkt_pos": "387448",
                "pkt_size": "1024",
                "sample_fmt": "s16",
                "nb_samples": 512,
                "channels": 1
            },
            {
                "media_type": "audio",
                "stream_index": 1,
                "key_frame": 1,
                "pts": 24064,
                "pts_time": "3.008000",
                "pkt_dts": 24064,
                "pkt_dts_time": "3.008000",
                "best_effort_timestamp": 24064,
                "best_effort_timestamp_time": "3.008000",
                "pkt_duration": 512,
                "pkt_duration_time": "0.064000",
                "pkt_pos": "388480",
                "pkt_size": "1024",
                "sample_fmt": "s16",
                "nb_samples": 512,
                "channels": 1
            },
            {
                "media_type": "audio",
                "stream_index": 1,
                "key_frame": 1,
                "pts": 24576,
                "pts_time": "3.072000",
                "pkt_dts": 24576,
                "pkt_dts_time": "3.072000",
                "best_effort_timestamp": 24576,
                "best_effort_timestamp_time": "3.072000",
                "pkt_duration": 512,
                "pkt_duration_time": "0.064000",
                "pkt_pos": "389512",
                "pkt_size": "1024",
                "sample_fmt": "s16",
                "nb_samples": 512,
                "channels": 1
            },
            {
                "media_type": "video",
                "stream_index": 0,
                "key_frame": 0,
                "pkt_dts": 14,
                "pkt_dts_time": "2.800000",
                "best_effort_timestamp": 14,
                "best_effort_timestamp_time": "2.800000",
                "pkt_duration": 1,
                "pkt_duration_time": "0.200000",
                "pkt_pos": "390544",
                "pkt_size": "22753",
                "width": 1280,
                "height": 720,
                "pix_fmt": "yuv420p",
                "pict_type": "P",
                "coded_picture_number": 14,
                "display_picture_number": 0,
                "interlaced_frame": 0,
                "top_field_first": 0,
                "repeat_pict": 0
            },
            {
                "media_type": "audio",
                "stream_index": 1,
                "key_frame": 1,
                "pts": 25088,
                "pts_time": "3.136000",
                "pkt_dts": 25088,
                "pkt_dts_time": "3.136000",
                "best_effort_timestamp": 25088,
                "best_effort_timestamp_time": "3.136000",
                "pkt_duration": 512,
                "pkt_duration_time": "0.064000",
                "pkt_pos": "413306",
                "pkt_size": "1024",
                "sample_fmt": "s16",
                "nb_samples": 512,
                "channels": 1
            },
            {
                "media_type": "audio",
                "stream_index": 1,
                "key_frame": 1,
                "pts": 25600,
                "pts_time": "3.200000",
                "pkt_dts": 25600,
                "pkt_dts_time": "3.200000",
                "best_effort_timestamp": 25600,
                "best_effort_timestamp_time": "3.200000",
                "pkt_duration": 512,
                "pkt_duration_time": "0.064000",
                "pkt_pos": "414338",
                "pkt_size": "1024",
                "sample_fmt": "s16",
                "nb_samples": 512,
                "channels": 1
            },
            {
                "media_type": "audio",
                "stream_index": 1,
                "key_frame": 1,
                "pts": 26112,
                "pts_time": "3.264000",
                "pkt_dts": 26112,
                "pkt_dts_time": "3.264000",
                "best_effort_timestamp": 26112,
                "best_effort_timestamp_time": "3.264000",
                "pkt_duration": 512,
                "pkt_duration_time": "0.064000",
                "pkt_pos": "415370",
                "pkt_size": "1024",
                "sample_fmt": "s16",
                "nb_samples": 512,
                "channels": 1
            },
            {
                "media_type": "audio",
                "stream_index": 1,
                "key_frame": 1,
                "pts": 26624,
                "pts_time": "3.328000",
                "pkt_dts": 26624,
                "pkt_dts_time": "3.328000",
                "best_effort_timestamp": 26624,
                "best_effort_timestamp_time": "3.328000",
                "pkt_duration": 512,
                "pkt_duration_time": "0.064000",
                "pkt_pos": "416402",
                "pkt_size": "1024",
                "sample_fmt": "s16",
                "nb_samples": 512,
                "channels": 1
            },
            {
                "media_type": "video",
                "stream_index": 0,
                "key_frame": 1,
                "pkt_dts": 15,
                "pkt_dts_time": "3.000000",
                "best_effort_timestamp": 15,
                "best_effort_timestamp_time": "3.000000",
                "pkt_duration": 1,
                "pkt_duration_time": "0.200000",
                "pkt_pos": "417434",
                "pkt_size": "32018",
                "width": 1280,
                "height": 720,
                "pix_fmt": "yuv420p",
                "pict_type": "I",
                "coded_picture_number": 15,
                "display_picture_number": 0,
                "interlaced_frame": 0,
                "top_field_first": 0,
                "repeat_pict": 0
            },
            {
                "media_type": "audio",
                "stream_index": 1,
                "key_frame": 1,
                "pts": 27136,
                "pts_time": "3.392000",
                "pkt_dts": 27136,
                "pkt_dts_time": "3.392000",
                "best_effort_timestamp": 27136,
                "best_effort_timestamp_time": "3.392000",
                "pkt_duration": 512,
                "pkt_duration_time": "0.064000",
                "pkt_pos": "449460",
                "pkt_size": "1024",
                "sample_fmt": "s16",
                "nb_samples": 512,
                "channels": 1
            },
            {
                "media_type": "audio",
                "stream_index": 1,
                "key_frame": 1,
                "pts": 27648,
                "pts_time": "3.456000",
                "pkt_dts": 27648,
                "pkt_dts_time": "3.456000",
                "best_effort_timestamp": 27648,
                "best_effort_timestamp_time": "3.456000",
                "pkt_duration": 512,
                "pkt_duration_time": "0.064000",
                "pkt_pos": "450492",
                "pkt_size": "1024",
                "sample_fmt": "s16",
                "nb_samples": 512,
                "channels": 1
            },
            {
                "media_type": "video",
                "stream_index": 0,
                "key_frame": 0,
                "pkt_dts": 16,
                "pkt_dts_time": "3.200000",
                "best_effort_timestamp": 16,
                "best_effort_timestamp_time": "3.200000",
                "pkt_duration": 1,
                "pkt_duration_time": "0.200000",
                "pkt_pos": "451524",
                "pkt_size": "23189",
                "width": 1280,
                "height": 720,
                "pix_fmt": "yuv420p",
                "pict_type": "P",
                "coded_picture_number": 16,
                "display_picture_number": 0,
                "interlaced_frame": 0,
                "top_field_first": 0,
                "repeat_pict": 0
            },
            {
                "media_type": "audio",
                "stream_index": 1,
                "key_frame": 1,
                "pts": 28160,
                "pts_time": "3.520000",
                "pkt_dts": 28160,
                "pkt_dts_time": "3.520000",
                "best_effort_timestamp": 28160,
                "best_effort_timestamp_time": "3.520000",
                "pkt_duration": 512,
                "pkt_duration_time": "0.064000",
                "pkt_pos": "474722",
                "pkt_size": "1024",
                "sample_fmt": "s16",
                "nb_samples": 512,
                "channels": 1
            },
            {
                "media_type": "audio",
                "stream_index": 1,
                "key_frame": 1,
                "pts": 28672,
                "pts_time": "3.584000",
                "pkt_dts": 28672,
                "pkt_dts_time": "3.584000",
                "best_effort_timestamp": 28672,
                "best_effort_timestamp_time": "3.584000",
                "pkt_duration": 512,
                "pkt_duration_time": "0.064000",
                "pkt_pos": "475754",
                "pkt_size": "1024",
                "sample_fmt": "s16",
                "nb_samples": 512,
                "channels": 1
            },
            {
                "media_type": "audio",
                "stream_index": 1,
                "key_frame": 1,
                "pts": 29184,
                "pts_time": "3.648000",
                "pkt_dts": 29184,
                "pkt_dts_time": "3.648000",
                "best_effort_timestamp": 29184,
                "best_effort_timestamp_time": "3.648000",
                "pkt_duration": 512,
                "pkt_duration_time": "0.064000",
                "pkt_pos": "476786",
                "pkt_size": "1024",
                "sample_fmt": "s16",
                "nb_samples": 512,
                "channels": 1
            },
            {
                "media_type": "audio",
                "stream_index": 1,
                "key_frame": 1,
                "pts": 29696,
                "pts_time": "3.712000",
                "pkt_dts": 29696,
                "pkt_dts_time": "3.712000",
                "best_effort_timestamp": 29696,
                "best_effort_timestamp_time": "3.712000",
                "pkt_duration": 512,
                "pkt_duration_time": "0.064000",
                "pkt_pos": "477818",
                "pkt_size": "1024",
                "sample_fmt": "s16",
                "nb_samples": 512,
                "channels": 1
            },
            {
                "media_type": "video",
                "stream_index": 0,
                "key_frame": 0,
                "pkt_dts": 17,
                "pkt_dts_time": "3.400000",
                "best_effort_timestamp": 17,
                "best_effort_timestamp_time": "3.400000",
                "pkt_duration": 1,
                "pkt_duration_time": "0.200000",
                "pkt_pos": "478850",
                "pkt_size": "23762",
                "width": 1280,
                "height": 720,
                "pix_fmt": "yuv420p",
                "pict_type": "P",
                "coded_picture_number": 17,
                "display_picture_number": 0,
                "interlaced_frame": 0,
                "top_field_first": 0,
                "repeat_pict": 0
            },
            {
                "media_type": "audio",
                "stream_index": 1,
                "key_frame": 1,
                "pts": 30208,
                "pts_time": "3.776000",
                "pkt_dts": 30208,
                "pkt_dts_time": "3.776000",
                "best_effort_timestamp": 30208,
                "best_effort_timestamp_time": "3.776000",
                "pkt_duration": 512,
                "pkt_duration_time": "0.064000",
                "pkt_pos": "502620",
                "pkt_size": "1024",
                "sample_fmt": "s16",
                "nb_samples": 512,
                "channels": 1
            },
            {
                "media_type": "audio",
                "stream_index": 1,
                "key_frame": 1,
                "pts": 30720,
                "pts_time": "3.840000",
                "pkt_dts": 30720,
                "pkt_dts_time": "3.840000",
                "best_effort_timestamp": 30720,
                "best_effort_timestamp_time": "3.840000",
                "pkt_duration": 512,
                "pkt_duration_time": "0.064000",
                "pkt_pos": "503652",
                "pkt_size": "1024",
                "sample_fmt": "s16",
                "nb_samples": 512,
                "channels": 1
            },
            {
                "media_type": "audio",
                "stream_index": 1,
                "key_frame": 1,
                "pts": 31232,
                "pts_time": "3.904000",
                "pkt_dts": 31232,
                "pkt_dts_time": "3.904000",
                "best_effort_timestamp": 31232,
                "best_effort_timestamp_time": "3.904000",
                "pkt_duration": 512,
                "pkt_duration_time": "0.064000",
                "pkt_pos": "504684",
                "pkt_size": "1024",
                "sample_fmt": "s16",
                "nb_samples": 512,
                "channels": 1
            },
            {
                "media_type": "audio",
                "stream_index": 1,
                "key_frame": 1,
                "pts": 31744,
                "pts_time": "3.968000",
                "pkt_dts": 31744,
                "pkt_dts_time": "3.968000",
                "best_effort_timestamp": 31744,
                "best_effort_timestamp_time": "3.968000",
                "pkt_duration": 512,
                "pkt_duration_time": "0.064000",
                "pkt_pos": "505716",
                "pkt_size": "1024",
                "sample_fmt": "s16",
                "nb_samples": 512,
                "channels": 1
            },
            {
                "media_type": "video",
                "stream_index": 0,
                "key_frame": 0,
                "pkt_dts": 18,
                "pkt_dts_time": "3.600000",
                "best_effort_timestamp": 18,
                "best_effort_timestamp_time": "3.600000",
                "pkt_duration": 1,
                "pkt_duration_time": "0.200000",
                "pkt_pos": "506748",
                "pkt_size": "24121",
                "width": 1280,
                "height": 720,
                "pix_fmt": "yuv420p",
                "pict_type": "P",
                "coded_picture_number": 18,
                "display_picture_number": 0,
                "interlaced_frame": 0,
                "top_field_first": 0,
                "repeat_pict": 0
            },
            {
                "media_type": "audio",
                "stream_index": 1,
                "key_frame": 1,
                "pts": 32256,
                "pts_time": "4.032000",
                "pkt_dts": 32256,
                "pkt_dts_time": "4.032000",
                "best_effort_timestamp": 32256,
                "best_effort_timestamp_time": "4.032000",
                "pkt_duration": 512,
                "pkt_duration_time": "0.064000",
                "pkt_pos": "530878",
                "pkt_size": "1024",
                "sample_fmt": "s16",
                "nb_samples": 512,
                "channels": 1
            },
            {
                "media_type": "audio",
                "stream_index": 1,
                "key_frame": 1,
                "pts": 32768,
                "pts_time": "4.096000",
                "pkt_dts": 32768,
                "pkt_dts_time": "4.096000",
                "best_effort_timestamp": 32768,
                "best_effort_timestamp_time": "4.096000",
                "pkt_duration": 512,
                "pkt_duration_time": "0.064000",
                "pkt_pos": "531910",
                "pkt_size": "1024",
                "sample_fmt": "s16",
                "nb_samples": 512,
                "channels": 1
            },
            {
                "media_type": "video",
                "stream_index": 0,
                "key_frame": 0,
                "pkt_dts": 19,
                "pkt_dts_time": "3.800000",
                "best_effort_timestamp": 19,
                "best_effort_timestamp_time": "3.800000",
                "pkt_duration": 1,
                "pkt_duration_time": "0.200000",
                "pkt_pos": "532942",
                "pkt_size": "24569",
                "width": 1280,
                "height": 720,
                "pix_fmt": "yuv420p",
                "pict_type": "P",
                "coded_picture_number": 19,
                "display_picture_number": 0,
                "interlaced_frame": 0,
                "top_field_first": 0,
                "repeat_pict": 0
            },
            {
                "media_type": "audio",
                "stream_index": 1,
                "key_frame": 1,
                "pts": 33280,
                "pts_time": "4.160000",
                "pkt_dts": 33280,
                "pkt_dts_time": "4.160000",
                "best_effort_timestamp": 33280,
                "best_effort_timestamp_time": "4.160000",
                "pkt_duration": 512,
                "pkt_duration_time": "0.064000",
                "pkt_pos": "557520",
                "pkt_size": "1024",
                "sample_fmt": "s16",
                "nb_samples": 512,
                "channels": 1
            },
            {
                "media_type": "audio",
                "stream_index": 1,
                "key_frame": 1,
                "pts": 33792,
                "pts_time": "4.224000",
                "pkt_dts": 33792,
                "pkt_dts_time": "4.224000",
                "best_effort_timestamp": 33792,
                "best_effort_timestamp_time": "4.224000",
                "pkt_duration": 512,
                "pkt_duration_time": "0.064000",
                "pkt_pos": "558552",
                "pkt_size": "1024",
                "sample_fmt": "s16",
                "nb_samples": 512,
                "channels": 1
            },
            {
                "media_type": "audio",
                "stream_index": 1,
                "key_frame": 1,
                "pts": 34304,
                "pts_time": "4.288000",
                "pkt_dts": 34304,
                "pkt_dts_time": "4.288000",
                "best_effort_timestamp": 34304,
                "best_effort_timestamp_time": "4.288000",
                "pkt_duration": 512,
                "pkt_duration_time": "0.064000",
                "pkt_pos": "559584",
                "pkt_size": "1024",
                "sample_fmt": "s16",
                "nb_samples": 512,
                "channels": 1
            },
            {
                "media_type": "audio",
                "stream_index": 1,
                "key_frame": 1,
                "pts": 34816,
                "pts_time": "4.352000",
                "pkt_dts": 34816,
                "pkt_dts_time": "4.352000",
                "best_effort_timestamp": 34816,
                "best_effort_timestamp_time": "4.352000",
                "pkt_duration": 512,
                "pkt_duration_time": "0.064000",
                "pkt_pos": "560616",
                "pkt_size": "1024",
                "sample_fmt": "s16",
                "nb_samples": 512,
                "channels": 1
            },
            {
                "media_type": "video",
                "stream_index": 0,
                "key_frame": 1,
                "pkt_dts": 20,
                "pkt_dts_time": "4.000000",
                "best_effort_timestamp": 20,
                "best_effort_timestamp_time": "4.000000",
                "pkt_duration": 1,
                "pkt_duration_time": "0.200000",
                "pkt_pos": "561648",
                "pkt_size": "37939",
                "width": 1280,
                "height": 720,
                "pix_fmt": "yuv420p",
                "pict_type": "I",
                "coded_picture_number": 20,
                "display_picture_number": 0,
                "interlaced_frame": 0,
                "top_field_first": 0,
                "repeat_pict": 0
            },
            {
                "media_type": "audio",
                "stream_index": 1,
                "key_frame": 1,
                "pts": 35328,
                "pts_time": "4.416000",
                "pkt_dts": 35328,
                "pkt_dts_time": "4.416000",
                "best_effort_timestamp": 35328,
                "best_effort_timestamp_time": "4.416000",
                "pkt_duration": 512,
                "pkt_duration_time": "0.064000",
                "pkt_pos": "599596",
                "pkt_size": "1024",
                "sample_fmt": "s16",
                "nb_samples": 512,
                "channels": 1
            },
            {
                "media_type": "audio",
                "stream_index": 1,
                "key_frame": 1,
                "pts": 35840,
                "pts_time": "4.480000",
                "pkt_dts": 35840,
                "pkt_dts_time": "4.480000",
                "best_effort_timestamp": 35840,
                "best_effort_timestamp_time": "4.480000",
                "pkt_duration": 512,
                "pkt_duration_time": "0.064000",
                "pkt_pos": "600628",
                "pkt_size": "1024",
                "sample_fmt": "s16",
                "nb_samples": 512,
                "channels": 1
            },
            {
                "media_type": "audio",
                "stream_index": 1,
                "key_frame": 1,
                "pts": 36352,
                "pts_time": "4.544000",
                "pkt_dts": 36352,
                "pkt_dts_time": "4.544000",
                "best_effort_timestamp": 36352,
                "best_effort_timestamp_time": "4.544000",
                "pkt_duration": 512,
                "pkt_duration_time": "0.064000",
                "pkt_pos": "601660",
                "pkt_size": "1024",
                "sample_fmt": "s16",
                "nb_samples": 512,
                "channels": 1
            },
            {
                "media_type": "audio",
                "stream_index": 1,
                "key_frame": 1,
                "pts": 36864,
                "pts_time": "4.608000",
                "pkt_dts": 36864,
                "pkt_dts_time": "4.608000",
                "best_effort_timestamp": 36864,
                "best_effort_timestamp_time": "4.608000",
                "pkt_duration": 512,
                "pkt_duration_time": "0.064000",
                "pkt_pos": "602692",
                "pkt_size": "1024",
                "sample_fmt": "s16",
                "nb_samples": 512,
                "channels": 1
            },
            {
                "media_type": "video",
                "stream_index": 0,
                "key_frame": 0,
                "pkt_dts": 21,
                "pkt_dts_time": "4.200000",
                "best_effort_timestamp": 21,
                "best_effort_timestamp_time": "4.200000",
                "pkt_duration": 1,
                "pkt_duration_time": "0.200000",
                "pkt_pos": "603724",
                "pkt_size": "28596",
                "width": 1280,
                "height": 720,
                "pix_fmt": "yuv420p",
                "pict_type": "P",
                "coded_picture_number": 21,
                "display_picture_number": 0,
                "interlaced_frame": 0,
                "top_field_first": 0,
                "repeat_pict": 0
            },
            {
                "media_type": "audio",
                "stream_index": 1,
                "key_frame": 1,
                "pts": 37376,
                "pts_time": "4.672000",
                "pkt_dts": 37376,
                "pkt_dts_time": "4.672000",
                "best_effort_timestamp": 37376,
                "best_effort_timestamp_time": "4.672000",
                "pkt_duration": 512,
                "pkt_duration_time": "0.064000",
                "pkt_pos": "632328",
                "pkt_size": "1024",
                "sample_fmt": "s16",
                "nb_samples": 512,
                "channels": 1
            },
            {
                "media_type": "audio",
                "stream_index": 1,
                "key_frame": 1,
                "pts": 37888,
                "pts_time": "4.736000",
                "pkt_dts": 37888,
                "pkt_dts_time": "4.736000",
                "best_effort_timestamp": 37888,
                "best_effort_timestamp_time": "4.736000",
                "pkt_duration": 512,
                "pkt_duration_time": "0.064000",
                "pkt_pos": "633360",
                "pkt_size": "1024",
                "sample_fmt": "s16",
                "nb_samples": 512,
                "channels": 1
            },
            {
                "media_type": "video",
                "stream_index": 0,
                "key_frame": 0,
                "pkt_dts": 22,
                "pkt_dts_time": "4.400000",
                "best_effort_timestamp": 22,
                "best_effort_timestamp_time": "4.400000",
                "pkt_duration": 1,
                "pkt_duration_time": "0.200000",
                "pkt_pos": "634392",
                "pkt_size": "25823",
                "width": 1280,
                "height": 720,
                "pix_fmt": "yuv420p",
                "pict_type": "P",
                "coded_picture_number": 22,
                "display_picture_number": 0,
                "interlaced_frame": 0,
                "top_field_first": 0,
                "repeat_pict": 0
            },
            {
                "media_type": "audio",
                "stream_index": 1,
                "key_frame": 1,
                "pts": 38400,
                "pts_time": "4.800000",
                "pkt_dts": 38400,
                "pkt_dts_time": "4.800000",
                "best_effort_timestamp": 38400,
                "best_effort_timestamp_time": "4.800000",
                "pkt_duration": 512,
                "pkt_duration_time": "0.064000",
                "pkt_pos": "660224",
                "pkt_size": "1024",
                "sample_fmt": "s16",
                "nb_samples": 512,
                "channels": 1
            },
            {
                "media_type": "audio",
                "stream_index": 1,
                "key_frame": 1,
                "pts": 38912,
                "pts_time": "4.864000",
                "pkt_dts": 38912,
                "pkt_dts_time": "4.864000",
                "best_effort_timestamp": 38912,
                "best_effort_timestamp_time": "4.864000",
                "pkt_duration": 512,
                "pkt_duration_time": "0.064000",
                "pkt_pos": "661256",
                "pkt_size": "1024",
                "sample_fmt": "s16",
                "nb_samples": 512,
                "channels": 1
            },
            {
                "media_type": "audio",
                "stream_index": 1,
                "key_frame": 1,
                "pts": 39424,
                "pts_time": "4.928000",
                "pkt_dts": 39424,
                "pkt_dts_time": "4.928000",
                "best_effort_timestamp": 39424,
                "best_effort_timestamp_time": "4.928000",
                "pkt_duration": 512,
                "pkt_duration_time": "0.064000",
                "pkt_pos": "662288",
                "pkt_size": "1024",
                "sample_fmt": "s16",
                "nb_samples": 512,
                "channels": 1
            },
            {
                "media_type": "audio",
                "stream_index": 1,
                "key_frame": 1,
                "pts": 39936,
                "pts_time": "4.992000",
                "pkt_dts": 39936,
                "pkt_dts_time": "4.992000",
                "best_effort_timestamp": 39936,
                "best_effort_timestamp_time": "4.992000",
                "pkt_duration": 512,
                "pkt_duration_time": "0.064000",
                "pkt_pos": "663320",
                "pkt_size": "1024",
                "sample_fmt": "s16",
                "nb_samples": 512,
                "channels": 1
            },
            {
                "media_type": "video",
                "stream_index": 0,
                "key_frame": 0,
                "pkt_dts": 23,
                "pkt_dts_time": "4.600000",
                "best_effort_timestamp": 23,
                "best_effort_timestamp_time": "4.600000",
                "pkt_duration": 1,
                "pkt_duration_time": "0.200000",
                "pkt_pos": "664352",
                "pkt_size": "27507",
                "width": 1280,
                "height": 720,
                "pix_fmt": "yuv420p",
                "pict_type": "P",
                "coded_picture_number": 23,
                "display_picture_number": 0,
                "interlaced_frame": 0,
                "top_field_first": 0,
                "repeat_pict": 0
            },
            {
                "media_type": "audio",
                "stream_index": 1,
                "key_frame": 1,
                "pts": 40448,
                "pts_time": "5.056000",
                "pkt_dts": 40448,
                "pkt_dts_time": "5.056000",
                "best_effort_timestamp": 40448,
                "best_effort_timestamp_time": "5.056000",
                "pkt_duration": 512,
                "pkt_duration_time": "0.064000",
                "pkt_pos": "691868",
                "pkt_size": "1024",
                "sample_fmt": "s16",
                "nb_samples": 512,
                "channels": 1
            },
            {
                "media_type": "audio",
                "stream_index": 1,
                "key_frame": 1,
                "pts": 40960,
                "pts_time": "5.120000",
                "pkt_dts": 40960,
                "pkt_dts_time": "5.120000",
                "best_effort_timestamp": 40960,
                "best_effort_timestamp_time": "5.120000",
                "pkt_duration": 512,
                "pkt_duration_time": "0.064000",
                "pkt_pos": "692900",
                "pkt_size": "1024",
                "sample_fmt": "s16",
                "nb_samples": 512,
                "channels": 1
            },
            {
                "media_type": "audio",
                "stream_index": 1,
                "key_frame": 1,
                "pts": 41472,
                "pts_time": "5.184000",
                "pkt_dts": 41472,
                "pkt_dts_time": "5.184000",
                "best_effort_timestamp": 41472,
                "best_effort_timestamp_time": "5.184000",
                "pkt_duration": 512,
                "pkt_duration_time": "0.064000",
                "pkt_pos": "693932",
                "pkt_size": "1024",
                "sample_fmt": "s16",
                "nb_samples": 512,
                "channels": 1
            },
            {
                "media_type": "video",
                "stream_index": 0,
                "key_frame": 0,
                "pkt_dts": 24,
                "pkt_dts_time": "4.800000",
                "best_effort_timestamp": 24,
                "best_effort_timestamp_time": "4.800000",
                "pkt_duration": 1,
                "pkt_duration_time": "0.200000",
                "pkt_pos": "694964",
                "pkt_size": "24674",
                "width": 1280,
                "height": 720,
                "pix_fmt": "yuv420p",
                "pict_type": "P",
                "coded_picture_number": 24,
                "display_picture_number": 0,
                "interlaced_frame": 0,
                "top_field_first": 0,
                "repeat_pict": 0
            },
            {
                "media_type": "audio",
                "stream_index": 1,
                "key_frame": 1,
                "pts": 41984,
                "pts_time": "5.248000",
                "pkt_dts": 41984,
                "pkt_dts_time": "5.248000",
                "best_effort_timestamp": 41984,
                "best_effort_timestamp_time": "5.248000",
                "pkt_duration": 512,
                "pkt_duration_time": "0.064000",
                "pkt_pos": "719646",
                "pkt_size": "1024",
                "sample_fmt": "s16",
                "nb_samples": 512,
                "channels": 1
            },
            {
                "media_type": "audio",
                "stream_index": 1,
                "key_frame": 1,
                "pts": 42496,
                "pts_time": "5.312000",
                "pkt_dts": 42496,
                "pkt_dts_time": "5.312000",
                "best_effort_timestamp": 42496,
                "best_effort_timestamp_time": "5.312000",
                "pkt_duration": 512,
                "pkt_duration_time": "0.064000",
                "pkt_pos": "720678",
                "pkt_size": "1024",
                "sample_fmt": "s16",
                "nb_samples": 512,
                "channels": 1
            },
            {
                "media_type": "audio",
                "stream_index": 1,
                "key_frame": 1,
                "pts": 43008,
                "pts_time": "5.376000",
                "pkt_dts": 43008,
                "pkt_dts_time": "5.376000",
                "best_effort_timestamp": 43008,
                "best_effort_timestamp_time": "5.376000",
                "pkt_duration": 512,
                "pkt_duration_time": "0.064000",
                "pkt_pos": "721710",
                "pkt_size": "1024",
                "sample_fmt": "s16",
                "nb_samples": 512,
                "channels": 1
            },
            {
                "media_type": "video",
                "stream_index": 0,
                "key_frame": 1,
                "pkt_dts": 25,
                "pkt_dts_time": "5.000000",
                "best_effort_timestamp": 25,
                "best_effort_timestamp_time": "5.000000",
                "pkt_duration": 1,
                "pkt_duration_time": "0.200000",
                "pkt_pos": "722742",
                "pkt_size": "35216",
                "width": 1280,
                "height": 720,
                "pix_fmt": "yuv420p",
                "pict_type": "I",
                "coded_picture_number": 25,
                "display_picture_number": 0,
                "interlaced_frame": 0,
                "top_field_first": 0,
                "repeat_pict": 0
            },
            {
                "media_type": "audio",
                "stream_index": 1,
                "key_frame": 1,
                "pts": 43520,
                "pts_time": "5.440000",
                "pkt_dts": 43520,
                "pkt_dts_time": "5.440000",
                "best_effort_timestamp": 43520,
                "best_effort_timestamp_time": "5.440000",
                "pkt_duration": 512,
                "pkt_duration_time": "0.064000",
                "pkt_pos": "757966",
                "pkt_size": "1024",
                "sample_fmt": "s16",
                "nb_samples": 512,
                "channels": 1
            },
            {
                "media_type": "audio",
                "stream_index": 1,
                "key_frame": 1,
                "pts": 44032,
                "pts_time": "5.504000",
                "pkt_dts": 44032,
                "pkt_dts_time": "5.504000",
                "best_effort_timestamp": 44032,
                "best_effort_timestamp_time": "5.504000",
                "pkt_duration": 512,
                "pkt_duration_time": "0.064000",
                "pkt_pos": "758998",
                "pkt_size": "1024",
                "sample_fmt": "s16",
                "nb_samples": 512,
                "channels": 1
            },
            {
                "media_type": "audio",
                "stream_index": 1,
                "key_frame": 1,
                "pts": 44544,
                "pts_time": "5.568000",
                "pkt_dts": 44544,
                "pkt_dts_time": "5.568000",
                "best_effort_timestamp": 44544,
                "best_effort_timestamp_time": "5.568000",
                "pkt_duration": 512,
                "pkt_duration_time": "0.064000",
                "pkt_pos": "760030",
                "pkt_size": "1024",
                "sample_fmt": "s16",
                "nb_samples": 512,
                "channels": 1
            }
        ]
    }
}